<svg width="134" height="27" viewBox="0 0 134 27" fill="none" xmlns="http://www.w3.org/2000/svg">
<path fill-rule="evenodd" clip-rule="evenodd" d="M14.6113 16.9424V0.384509C14.6113 0.282531 14.6518 0.18473 14.7239 0.11262C14.7961 0.0405107 14.8939 0 14.9958 0H16.3176C16.4196 0 16.5174 0.0405107 16.5895 0.11262C16.6616 0.18473 16.7021 0.282531 16.7021 0.384509V16.9424C16.7021 17.0444 16.6616 17.1422 16.5895 17.2143C16.5174 17.2864 16.4196 17.3269 16.3176 17.3269H14.9958C14.8939 17.3269 14.7961 17.2864 14.7239 17.2143C14.6518 17.1422 14.6113 17.0444 14.6113 16.9424ZM11.7035 11.7277C11.7035 15.2845 9.18016 17.6155 6.10408 17.6155C4.42186 17.6155 2.83576 16.8946 2.09077 15.5728V22.3979C2.09077 22.4999 2.05026 22.5977 1.97815 22.6698C1.90604 22.7419 1.80824 22.7824 1.70626 22.7824H0.384509C0.282531 22.7824 0.18473 22.7419 0.11262 22.6698C0.0405107 22.5977 0 22.4999 0 22.3979V6.48881C0 6.38683 0.0405107 6.28903 0.11262 6.21692C0.18473 6.14481 0.282531 6.1043 0.384509 6.1043C0.837037 6.1043 1.27103 6.28407 1.59102 6.60405C1.911 6.92404 2.09077 7.35803 2.09077 7.81056V7.85862C2.83576 6.58494 4.46992 5.81592 6.08005 5.81592C9.15613 5.81592 11.7035 8.19507 11.7035 11.7277ZM9.5887 11.7518C9.5887 9.51682 7.95453 7.78653 5.8878 7.78653C3.89316 7.78653 2.09077 9.3486 2.09077 11.7518C2.09077 14.179 4.06138 15.6449 5.8878 15.6449C7.95453 15.6449 9.5887 14.0108 9.5887 11.7518ZM31.1529 6.21692C31.0808 6.14481 30.983 6.1043 30.881 6.1043C30.4286 6.10443 29.9947 6.28425 29.6748 6.60422C29.3549 6.92419 29.1752 7.35811 29.1752 7.81056V7.85862C28.4302 6.53687 26.8441 5.81592 25.1619 5.81592C21.9897 5.81592 19.5625 8.38732 19.5625 11.7037C19.5625 15.1403 22.1339 17.6155 25.0658 17.6155C26.8682 17.6155 28.4302 16.6783 29.1752 15.3325V15.6209C29.1752 16.0733 29.3549 16.5073 29.6748 16.8272C29.9947 17.1472 30.4286 17.327 30.881 17.3272C30.983 17.3272 31.0808 17.2867 31.1529 17.2145C31.225 17.1424 31.2655 17.0446 31.2655 16.9427V6.48881C31.2655 6.38683 31.225 6.28903 31.1529 6.21692ZM25.3542 7.78653C27.2287 7.78653 29.1752 9.39666 29.1752 11.7037C29.1752 13.9867 27.3724 15.6449 25.3782 15.6449C23.3115 15.6449 21.6773 13.8425 21.6773 11.7037C21.6773 9.58891 23.3115 7.78653 25.3542 7.78653ZM44.2583 6.10401H44.267C44.3303 6.10403 44.3926 6.11969 44.4484 6.14958C44.5042 6.17947 44.5517 6.22268 44.5868 6.27536C44.6219 6.32805 44.6435 6.38858 44.6495 6.45159C44.6556 6.5146 44.6461 6.57813 44.6217 6.63655L37.9706 22.5456C37.9414 22.6156 37.8922 22.6754 37.8291 22.7175C37.7659 22.7596 37.6918 22.7821 37.6159 22.7821H36.2346C36.1716 22.7821 36.1096 22.7667 36.054 22.7371C35.9983 22.7076 35.9508 22.6648 35.9156 22.6126C35.8804 22.5604 35.8586 22.5003 35.852 22.4377C35.8454 22.3751 35.8543 22.3118 35.8779 22.2534L38.0187 16.9904L33.7208 6.63607C33.6965 6.57752 33.687 6.51387 33.6933 6.45077C33.6995 6.38767 33.7212 6.32709 33.7565 6.27443C33.7918 6.22176 33.8396 6.17864 33.8956 6.14891C33.9516 6.11917 34.0141 6.10375 34.0775 6.10401C34.5752 6.10406 35.0618 6.25215 35.4751 6.52945C35.8885 6.80675 36.2101 7.20072 36.399 7.66127L39.1477 14.371L41.9417 7.64973C42.1319 7.19203 42.4535 6.80094 42.8658 6.52583C43.2781 6.25073 43.7627 6.10394 44.2583 6.10401ZM68.2585 7.74712L68.4662 6.53062C68.4811 6.44309 68.4653 6.3531 68.4214 6.27591C68.3775 6.19872 68.3082 6.13911 68.2254 6.10718C67.8173 5.94713 67.1848 5.81592 66.5677 5.81592C65.0777 5.81592 63.9963 6.68106 63.4195 8.65167V7.83459C63.4195 7.37569 63.2372 6.93558 62.9127 6.61109C62.5882 6.2866 62.1481 6.1043 61.6892 6.1043C61.5872 6.1043 61.4894 6.14481 61.4173 6.21692C61.3452 6.28903 61.3047 6.38683 61.3047 6.48881V16.9427C61.3047 17.0446 61.3452 17.1424 61.4173 17.2145C61.4894 17.2867 61.5872 17.3272 61.6892 17.3272H63.035C63.137 17.3272 63.2348 17.2867 63.3069 17.2145C63.379 17.1424 63.4195 17.0446 63.4195 16.9427V13.2177C63.4195 10.2618 64.3087 7.83459 66.5436 7.83459C66.9553 7.83888 67.3635 7.90998 67.7524 8.04511C67.8052 8.06359 67.8614 8.07035 67.917 8.0649C67.9727 8.05945 68.0265 8.04193 68.0746 8.01356C68.1228 7.98519 68.1642 7.94665 68.196 7.90064C68.2278 7.85462 68.2491 7.80223 68.2585 7.74712ZM69.4512 11.7037C69.4512 8.14701 72.1187 5.81592 75.3149 5.81592C78.5112 5.81592 81.2027 8.14701 81.2027 11.7037C81.2027 15.2604 78.5112 17.6155 75.3149 17.6155C72.1187 17.6155 69.4512 15.2604 69.4512 11.7037ZM79.112 11.7037C79.112 9.39666 77.3817 7.78653 75.3149 7.78653C73.2722 7.78653 71.566 9.39666 71.566 11.7037C71.566 14.0348 73.2722 15.6449 75.3149 15.6449C77.3817 15.6449 79.112 14.0348 79.112 11.7037ZM94.1881 6.21662C94.116 6.14451 94.0182 6.104 93.9162 6.104C93.4637 6.104 93.0297 6.28377 92.7097 6.60376C92.3897 6.92374 92.21 7.35774 92.21 7.81026V12.2802C92.1859 14.7074 90.3114 15.6446 88.7494 15.6446C87.1873 15.6446 86.0578 14.443 86.0578 12.5445V7.81026C86.0578 7.35774 85.878 6.92374 85.5581 6.60376C85.2381 6.28377 84.8041 6.104 84.3516 6.104C84.2496 6.104 84.1518 6.14451 84.0797 6.21662C84.0076 6.28873 83.967 6.38653 83.967 6.48851V12.5926C83.943 15.7408 85.6733 17.6152 88.485 17.6152C89.7347 17.6152 91.5371 16.9904 92.21 15.5725V16.9424C92.21 17.0443 92.2505 17.1421 92.3226 17.2142C92.3947 17.2864 92.4925 17.3269 92.5945 17.3269H93.9162C94.0182 17.3269 94.116 17.2864 94.1881 17.2142C94.2602 17.1421 94.3007 17.0443 94.3007 16.9424V6.48851C94.3007 6.38653 94.2602 6.28873 94.1881 6.21662ZM108.262 10.8386V16.9427C108.262 17.0446 108.222 17.1424 108.15 17.2145C108.078 17.2867 107.98 17.3272 107.878 17.3272H106.557C106.455 17.3272 106.357 17.2867 106.285 17.2145C106.213 17.1424 106.173 17.0446 106.173 16.9427V10.9587C106.173 9.08425 105.019 7.88265 103.457 7.88265C101.895 7.88265 100.02 8.8199 100.02 11.2471V16.9427C100.02 17.0446 99.9799 17.1424 99.9078 17.2145C99.8357 17.2867 99.7379 17.3272 99.6359 17.3272H98.3142C98.2122 17.3272 98.1144 17.2867 98.0423 17.2145C97.9702 17.1424 97.9297 17.0446 97.9297 16.9427V6.48881C97.9297 6.38683 97.9702 6.28903 98.0423 6.21692C98.1144 6.14481 98.2122 6.1043 98.3142 6.1043H99.6359C99.7379 6.1043 99.8357 6.14481 99.9078 6.21692C99.9799 6.28903 100.02 6.38683 100.02 6.48881V7.81056C100.693 6.44075 102.52 5.81592 103.745 5.81592C106.532 5.81592 108.287 7.6904 108.262 10.8386ZM122.595 0.11262C122.523 0.0405107 122.425 0 122.323 0C121.87 0 121.436 0.179766 121.116 0.499752C120.796 0.819737 120.617 1.25373 120.617 1.70626V7.85841C119.872 6.53666 118.286 5.8157 116.603 5.8157C113.527 5.8157 111.004 8.14679 111.004 11.7035C111.004 15.2362 113.551 17.6153 116.627 17.6153C118.237 17.6153 119.872 16.8463 120.617 15.5726V16.9424C120.617 17.0444 120.657 17.1422 120.729 17.2143C120.801 17.2864 120.899 17.3269 121.001 17.3269H122.323C122.425 17.3269 122.523 17.2864 122.595 17.2143C122.667 17.1422 122.707 17.0444 122.707 16.9424V0.384509C122.707 0.282531 122.667 0.18473 122.595 0.11262ZM116.796 7.78631C118.646 7.78631 120.617 9.25225 120.617 11.6795H120.615C120.615 14.0826 118.814 15.6447 116.796 15.6447C114.753 15.6447 113.119 13.9144 113.119 11.6795C113.119 9.42047 114.753 7.78631 116.796 7.78631ZM125.893 14.0348H127.076C127.163 14.0349 127.248 14.0647 127.316 14.1194C127.384 14.1741 127.432 14.2504 127.451 14.3357C127.625 15.1561 128.426 15.7891 129.651 15.7891C131.068 15.7891 131.91 15.0922 131.91 14.179C131.91 13.3379 131.261 12.9053 130.371 12.7131L128.833 12.3526C126.959 11.8479 125.878 10.9347 125.878 9.13231C125.878 7.28186 127.464 5.81592 129.723 5.81592C131.495 5.81592 133.33 6.69548 133.568 8.65167C133.575 8.70581 133.57 8.76078 133.554 8.81292C133.538 8.86507 133.511 8.9132 133.475 8.95411C133.438 8.99503 133.394 9.0278 133.344 9.05023C133.295 9.07267 133.241 9.08426 133.186 9.08425H131.905C131.82 9.08418 131.737 9.05583 131.669 9.00363C131.602 8.95143 131.554 8.87835 131.533 8.79586C131.345 8.09269 130.558 7.64234 129.772 7.64234C128.691 7.64234 127.97 8.33926 127.97 9.2044C127.97 9.97342 128.691 10.382 129.412 10.5502L131.07 10.9587C133.401 11.5355 134.002 12.9293 134.002 14.203C134.002 16.2938 131.983 17.6155 129.652 17.6155C127.768 17.6155 125.842 16.5062 125.515 14.4832C125.506 14.4282 125.509 14.3718 125.523 14.3179C125.538 14.2641 125.564 14.2141 125.6 14.1714C125.636 14.1287 125.681 14.0944 125.732 14.0708C125.782 14.0472 125.838 14.0349 125.893 14.0348ZM55.5624 17.6674V15.5728C54.817 16.8465 53.1828 17.6155 51.5727 17.6155C48.4966 17.6155 45.9492 15.2364 45.9492 11.7037C45.9492 8.14701 48.4726 5.81592 51.5486 5.81592C53.2309 5.81592 54.817 6.5609 55.5619 7.85862V7.81056C55.5619 7.35803 55.7417 6.92404 56.0617 6.60405C56.3817 6.28407 56.8157 6.1043 57.2682 6.1043C57.3702 6.1043 57.468 6.14481 57.5401 6.21692C57.6122 6.28903 57.6527 6.38683 57.6527 6.48881V17.8688C57.6556 17.9284 57.6556 17.9876 57.6527 18.0467V18.052C57.6373 18.3564 57.546 18.6522 57.3872 18.9124C57.2283 19.1726 57.007 19.389 56.7434 19.5419L51.9274 22.3248C51.8393 22.3755 51.7348 22.3893 51.6367 22.3632C51.5385 22.337 51.4547 22.2732 51.4035 22.1854L51.3987 22.1806C51.1566 21.7612 51.091 21.2628 51.2162 20.795C51.3415 20.3273 51.6475 19.9284 52.0668 19.6861L55.5624 17.6674ZM51.7414 7.78653C49.6987 7.78653 48.0645 9.42069 48.0645 11.6797C48.0645 13.9146 49.6987 15.6449 51.7414 15.6449C53.76 15.6449 55.5624 14.0829 55.5624 11.6797C55.5624 9.25247 53.5918 7.78653 51.7414 7.78653ZM57.3332 24.6448C57.1525 24.463 56.9143 24.3494 56.6593 24.3235C56.4042 24.2976 56.1481 24.361 55.9345 24.5028C55.721 24.6446 55.5632 24.8561 55.4881 25.1012C55.413 25.3463 55.4252 25.6098 55.5226 25.8469C55.6201 26.084 55.7968 26.28 56.0225 26.4014C56.2483 26.5229 56.5092 26.5622 56.7607 26.5129C57.0123 26.4635 57.2389 26.3284 57.402 26.1306C57.5651 25.9328 57.6546 25.6846 57.6552 25.4283C57.6557 25.1348 57.5399 24.8531 57.3332 24.6448ZM57.4049 20.5593L57.4097 20.5641C57.6503 20.9831 57.7151 21.4803 57.5899 21.9469C57.4646 22.4136 57.1597 22.8116 56.7416 23.0538L51.9257 25.8367C51.8376 25.8874 51.7331 25.9012 51.635 25.875C51.5368 25.8489 51.453 25.785 51.4018 25.6973L51.397 25.6925C51.1549 25.2731 51.0892 24.7747 51.2145 24.3069C51.3398 23.8391 51.6457 23.4403 52.0651 23.198L56.881 20.4199C56.9691 20.3692 57.0736 20.3555 57.1717 20.3816C57.2699 20.4077 57.3537 20.4716 57.4049 20.5593Z" fill="white"/>
</svg>
